<?xml version="1.0" standalone="no"?>
<!DOCTYPE svg PUBLIC "-//W3C//DTD SVG 20010904//EN"
 "http://www.w3.org/TR/2001/REC-SVG-20010904/DTD/svg10.dtd">
<svg version="1.0" xmlns="http://www.w3.org/2000/svg"
 width="500.000000pt" height="500.000000pt" viewBox="0 0 500.000000 500.000000"
 preserveAspectRatio="xMidYMid meet">
<metadata>
Created by potrace 1.14, written by Peter Selinger 2001-2017
</metadata>
<g transform="translate(0.000000,500.000000) scale(0.100000,-0.100000)"
fill="#000000" stroke="none">
<path d="M2408 4575 c-2 -2 -60 -5 -130 -6 -239 -4 -422 -63 -623 -199 -137
-93 -249 -229 -344 -419 -101 -200 -148 -407 -142 -626 l1 -30 392 0 393 0 2
90 c2 76 8 137 19 191 10 49 41 137 64 184 56 112 144 169 272 177 205 15 324
-65 382 -257 46 -147 53 -213 52 -467 l-1 -208 -245 -102 c-292 -121 -401
-173 -568 -270 -69 -40 -127 -73 -128 -73 -2 0 -38 -24 -79 -54 -116 -82 -216
-177 -273 -259 -108 -156 -218 -406 -249 -564 -42 -216 -44 -384 -8 -573 22
-116 105 -289 198 -410 151 -198 322 -290 548 -296 327 -8 533 142 746 544 35
64 63 112 63 106 0 -11 45 -278 55 -324 2 -13 7 -42 10 -65 3 -22 8 -51 10
-65 3 -14 7 -41 11 -60 3 -19 7 -42 9 -50 2 -8 4 -19 4 -25 1 -12 791 -14 791
-1 0 4 -6 34 -14 65 -8 31 -17 74 -21 96 -3 22 -12 78 -20 125 -19 114 -31
211 -41 340 -4 41 -8 593 -9 1225 -2 1022 -5 1218 -20 1275 -2 8 -7 29 -9 45
-3 17 -15 62 -27 100 -11 39 -23 79 -27 90 -3 11 -29 68 -59 126 -84 169 -190
300 -323 401 -153 116 -375 201 -558 214 -42 3 -82 7 -89 9 -6 2 -13 2 -15 0z
m341 -2657 c-2 -540 -2 -554 -22 -583 -12 -16 -24 -32 -27 -35 -3 -3 -17 -21
-32 -41 -98 -132 -225 -200 -357 -193 -240 13 -357 179 -355 504 1 114 21 195
74 306 68 140 197 259 490 449 91 59 176 115 190 125 14 11 29 19 33 19 5 1 7
-248 6 -551z"/>
</g>
</svg>
