<svg xmlns="http://www.w3.org/2000/svg" xmlns:xlink="http://www.w3.org/1999/xlink" id="Layer_1" x="0px" y="0px" viewBox="0 0 566.9 246.7" style="enable-background:new 0 0 566.9 246.7;" xml:space="preserve"><style type="text/css">	.st0{fill:#FFFFFF;}	.st1{fill:none;stroke:#FFFFFF;stroke-width:3;stroke-miterlimit:10;}</style><path class="st0" d="M260.1,166.8L260.1,166.8c1.8,0,3.2,1.4,3.2,3.2l0,0c0,1.8-1.4,3.2-3.2,3.2l0,0c-1.8,0-3.2-1.4-3.2-3.2l0,0 C256.9,168.3,258.4,166.8,260.1,166.8z"></path><path class="st0" d="M249,123.4c0-17.7,12.7-30.1,30.6-30.1s30.7,12.4,30.7,30.1s-12.8,30.2-30.7,30.2S249,141,249,123.4z  M296.1,123.4c0-10.5-6.6-17.8-16.5-17.8s-16.5,7.3-16.5,17.8s6.8,17.8,16.5,17.8S296.1,133.9,296.1,123.4L296.1,123.4z"></path><path class="st0" d="M319.1,123.4c0-18.7,13.7-30.1,30.1-30.1c8.3,0,15.2,2.4,21.2,7.7l-6.8,9.3c-3.7-3.3-8.5-5.1-13.5-4.9 c-9.6,0-17,7-17,17.9c0,11.3,7.5,17.9,16.8,17.9c5.5,0.2,10.8-2,14.6-5.9l7,9.4c-6.4,5.9-12.9,8.8-23,8.8 C334.1,153.6,319.1,143.3,319.1,123.4z"></path><path class="st0" d="M435,121.3c-0.1,2.2-0.2,4.4-0.5,6.7h-41c1.8,9.2,9,14.1,18.2,14.1c6.5,0,11.1-1.9,15.1-5.4l5.9,9 c-6.2,5.3-14.1,8.1-22.3,7.9c-18.3,0-30.9-12.4-30.9-30.3c0-16.8,12.2-30,29.4-30C425.2,93.3,435,104.2,435,121.3z M393.6,118.5 h28.2c-0.4-9.1-5.8-13.8-13.1-13.8C401.2,104.7,395.2,109.7,393.6,118.5L393.6,118.5z"></path><path class="st0" d="M566.9,116.2v35.7H553v-34.4c0-7.2-2.8-11.7-9.7-11.7c-8.7,0-14,6.3-14,14.7v31.4h-13.9V94.8h9.5l2.8,9 c4.1-6.7,11.4-10.7,19.2-10.5C559.9,93.3,566.9,101.6,566.9,116.2z"></path><path class="st0" d="M256.9,177.8h6.4V204h-6.4V177.8z"></path><path class="st0" d="M296.5,187.6V204h-6.4v-15.8c0-3.3-1.3-5.4-4.5-5.4c-4,0-6.4,2.9-6.4,6.8V204h-6.4v-26.2h4.4l1.3,4.1 c1.9-3.1,5.2-4.9,8.8-4.8C293.3,177.1,296.5,180.9,296.5,187.6z"></path><path class="st0" d="M326.7,177.8v0.2l-12.4,26.2h-2.8l-12.4-26.2v-0.2h7l5.1,11.7c0.7,1.6,1.2,3.2,1.6,4.9c0.4-1.7,1-3.3,1.6-4.9 l5.1-11.7L326.7,177.8z"></path><path class="st0" d="M355.4,189.9c0,1-0.1,2-0.2,3.1h-18.8c0.8,4.2,4.1,6.5,8.3,6.5c2.5,0.1,5-0.8,6.9-2.5l2.7,4.1 c-2.9,2.4-6.5,3.7-10.2,3.6c-8.4,0-14.1-5.7-14.1-13.9c0-7.7,5.6-13.7,13.5-13.7C350.9,177.1,355.4,182.1,355.4,189.9z M336.4,188.6 h12.9c-0.2-4.2-2.6-6.3-6-6.3S337.1,184.6,336.4,188.6L336.4,188.6z"></path><path class="st0" d="M361.2,201.7l2.5-4.5c2.1,1.4,4.6,2.1,7.2,2.2c2.4,0,3.9-1.1,3.9-2.7c0-1.9-2.5-2.9-5-3.9 c-4.2-1.6-7.4-3.8-7.4-8c0-4.8,4.3-7.3,9.3-7.3c3,0,6,0.8,8.6,2.4l-2.2,4.3c-1.8-0.9-3.8-1.5-5.8-1.5c-2,0-3.7,0.6-3.7,2.2 s1.9,2.7,4.8,3.7c4.6,1.7,7.9,3.9,7.9,8.2c0,4.9-3.9,7.9-9.7,7.9C367.7,204.6,364.2,203.6,361.2,201.7z"></path><path class="st0" d="M390.3,196v-12.8l-4.6-0.4v-5.1h4.6l0.2-8.4h6.2v8.4h8.1v5.5h-8.1v12.1c0,2.6,1.2,3.3,2.9,3.3 c1.6,0,3.1-0.5,4.4-1.4l2,4.8c-2.3,1.6-5.1,2.4-7.9,2.4C393.4,204.5,390.3,201.8,390.3,196z"></path><path class="st0" d="M451.6,187.1V204h-6.4v-16.2c0-3.2-1.6-5-4.2-5c-4,0-5.9,3.6-5.9,7.1v14h-6.3v-16.2c0-2.7-1.4-4.9-4.3-4.9 c-4,0-5.8,3.6-5.8,7.1v14h-6.4v-26.2h4.4l1.3,4.2c1.6-3.1,4.9-5,8.3-4.9c3.8,0,6.5,1.8,7.9,4.6c1.8-3,5-4.8,8.5-4.6 C448.4,177.1,451.6,180.9,451.6,187.1z"></path><path class="st0" d="M484.6,189.9c0,1-0.1,2-0.2,3.1h-18.8c0.8,4.2,4.1,6.5,8.3,6.5c2.5,0.1,5-0.8,6.9-2.5l2.7,4.1 c-2.9,2.4-6.5,3.7-10.2,3.6c-8.4,0-14.1-5.7-14.1-13.9c0-7.7,5.6-13.7,13.5-13.7C480.1,177.1,484.6,182.1,484.6,189.9z M465.6,188.6 h12.9c-0.2-4.2-2.6-6.3-6-6.3S466.4,184.6,465.6,188.6L465.6,188.6z"></path><path class="st0" d="M516,187.6V204h-6.4v-15.8c0-3.3-1.3-5.4-4.5-5.4c-4,0-6.4,2.9-6.4,6.8V204h-6.4v-26.2h4.4l1.3,4.1 c1.9-3.1,5.2-4.9,8.8-4.8C512.8,177.1,516,180.9,516,187.6z"></path><path class="st0" d="M526.9,196v-12.8l-4.6-0.4v-5.1h4.6l0.2-8.4h6.2v8.4h8.1v5.5h-8.1v12.1c0,2.6,1.2,3.3,2.9,3.3 c1.6,0,3.1-0.5,4.4-1.4l2,4.8c-2.3,1.6-5.1,2.4-7.9,2.4C530,204.5,526.9,201.8,526.9,196z"></path><path class="st0" d="M547,201.7l2.5-4.5c2.1,1.4,4.6,2.1,7.2,2.2c2.3,0,3.9-1.1,3.9-2.7c0-1.9-2.5-2.9-5-3.9c-4.2-1.6-7.4-3.8-7.4-8 c0-4.8,4.3-7.3,9.3-7.3c3,0,6,0.8,8.6,2.3l-2.2,4.3c-1.8-0.9-3.8-1.5-5.8-1.5c-2,0-3.7,0.6-3.7,2.2s1.9,2.7,4.8,3.7 c4.6,1.7,7.9,3.9,7.9,8.2c0,4.9-3.9,7.9-9.7,7.9C553.6,204.6,550,203.6,547,201.7z"></path><path class="st0" d="M491.2,94.2l-1.9,7.1c-3.9-3.4-7.2-7.1-16.4-7c-17,0.1-29,11.8-29,28.5s12,29.2,29,28.6 c8.5-0.3,13-3.5,17.2-6.4l1.5,7H502V94.2H491.2z M472.9,139.6c-9.2,0-15.6-6.9-15.6-16.9s6.4-16.9,15.6-16.9s15.6,6.9,15.6,16.9 S482.2,139.6,472.9,139.6z"></path><path class="st1" d="M2,147.1c0-54.3,45.2-99.5,100.3-99.5s100.3,45.2,100.3,99.5c0,54.7-45.2,99.5-100.3,99.5S2,201.9,2,147.1z  M52.5,147.1c0,28.5,22.4,50.5,49.8,50.5c27.7,0,49.8-22,49.8-50.5c0-28.1-22-50.5-49.8-50.5C74.9,96.6,52.5,119,52.5,147.1 L52.5,147.1z"></path><path class="st0" d="M178.4,6.6L178.4,6.6c13.5,0,24.5,11,24.5,24.5v0c0,13.5-11,24.5-24.5,24.5l0,0c-13.5,0-24.5-11-24.5-24.5v0 C153.9,17.6,164.9,6.6,178.4,6.6z"></path><path class="st0" d="M202.5,147.2c0-14-11.3-25.3-25.3-25.3c-14,0-25.3,11.3-25.3,25.3l0,0c0,28.5-22,50.5-49.7,50.5 c-27,0-49.2-21.5-49.7-49.5c0-0.3,0-0.6,0-1c0.3-14-10.8-25.5-24.8-25.8S2.2,132.2,1.9,146.2c0,0.3,0,0.7,0,1H2 c0,54.7,45.2,99.5,100.2,99.5c54.2,0,98.7-43.4,100.2-96.8C202.5,148.9,202.5,148.1,202.5,147.2z"></path></svg>